<svg width="1024" height="1024" viewBox="0 0 1024 1024" fill="none" xmlns="http://www.w3.org/2000/svg">
<path opacity="0.5" d="M700.702 244.778L381.696 400.56C371.233 405.67 366.899 418.298 372.018 428.766L463.403 615.661C468.521 626.129 481.153 630.473 491.617 625.363L810.622 469.581C821.086 464.471 825.419 451.843 820.301 441.375L728.916 254.48C723.797 244.012 711.166 239.668 700.702 244.778Z" fill="#944AFC"/>
<path opacity="0.8" d="M699.907 494.473C716.592 477.745 716.547 450.648 699.806 433.949C683.065 417.251 655.967 417.274 639.282 434.001C622.597 450.728 622.643 477.826 639.384 494.524C656.125 511.223 683.222 511.2 699.907 494.473Z" fill="#155A8C"/>
<path opacity="0.8" d="M752.999 468.553C769.684 451.826 769.639 424.729 752.898 408.03C736.157 391.331 709.06 391.354 692.375 408.082C675.69 424.809 675.735 451.906 692.476 468.605C709.217 485.304 736.314 485.281 752.999 468.553Z" fill="#151F8C"/>
<path d="M428.824 576.878C410.217 571.714 374.45 561.348 328.312 547.436C318.3 544.485 308.045 542.432 297.668 541.302C273.043 538.628 235.155 534.506 211.865 557.25C198.872 569.947 195.771 585.785 191.028 610.001C187.902 625.949 185.696 638.217 192.253 649.257C196.96 657.195 205.271 661.194 221.671 668.886C237.018 676.062 243.735 676.921 264.573 684.834C273.852 688.342 280.508 691.262 293.991 697.101C329.317 712.448 338.118 718.472 373.665 733.904C391.23 741.522 399.553 744.614 409.212 747.399C421.577 751.214 434.317 753.682 447.211 754.759C460.584 755.716 472.878 753.766 497.467 749.852C497.467 749.852 529.398 744.773 558.755 735.131C563.854 733.45 568.254 731.586 568.561 731.451C572.765 729.652 576.858 727.603 580.818 725.317C595.086 717.134 628.623 694.648 628.623 694.648C658.041 674.921 673.437 669.045 685.008 651.711C687.766 647.589 691.137 641.517 689.911 634.536C688.562 626.955 682.139 620.686 675.202 618.588C669.87 616.969 665.396 618.159 656.815 621.042C642.205 625.96 627.882 631.694 613.914 638.217C599.72 645.001 598.788 645.921 590.624 649.257C586.947 650.742 581.676 652.815 566.109 657.845C549.831 663.108 541.68 665.745 534.24 667.659C522.803 670.591 510.46 673.793 493.79 675.02C485.32 675.657 477.928 675.437 463.146 675.02C444.992 674.492 440.506 673.449 437.405 672.566C428.927 670.009 421.021 665.844 414.115 660.298C407.398 654.913 403.917 649.343 396.955 638.217C396.293 637.149 394.859 634.794 395.729 633.31C396.599 631.825 399.921 631.899 401.858 632.083C408.747 632.721 411.909 634.095 420.244 635.763C426.373 636.99 431.166 637.235 443.534 636.99C479.485 636.266 497.467 635.91 512.176 628.402C518.084 625.397 539.633 614.393 539.143 598.96C538.934 592.127 534.423 584.595 528.111 580.559C524.605 578.314 520.94 577.406 513.402 576.878C502.063 576.081 493.569 576.952 482.758 578.105C458.647 580.681 454.994 581.086 448.437 580.559C441.792 579.996 435.221 578.763 428.824 576.878Z" fill="#151F8C"/>
</svg>
